<mxfile host="app.diagrams.net" modified="2023-04-01T18:17:53.163Z" agent="Mozilla/5.0 (Macintosh; Intel Mac OS X 10_15_7) AppleWebKit/605.1.15 (KHTML, like Gecko) Version/16.3 Safari/605.1.15" etag="nSdBpZgCj5-ycL7pdO36" version="21.1.2" type="github">
  <diagram name="Page-1" id="UwrJ7ECJ_jyawxIc7ixw">
    <mxGraphModel dx="954" dy="647" grid="1" gridSize="10" guides="1" tooltips="1" connect="1" arrows="1" fold="1" page="1" pageScale="1" pageWidth="850" pageHeight="1100" math="0" shadow="0">
      <root>
        <mxCell id="0" />
        <mxCell id="1" parent="0" />
        <mxCell id="ItIuUlA7uWM67DeqPAHS-5" value="" style="edgeStyle=orthogonalEdgeStyle;rounded=0;orthogonalLoop=1;jettySize=auto;html=1;" parent="1" source="ItIuUlA7uWM67DeqPAHS-1" edge="1">
          <mxGeometry relative="1" as="geometry">
            <mxPoint x="586" y="199" as="targetPoint" />
          </mxGeometry>
        </mxCell>
        <mxCell id="ItIuUlA7uWM67DeqPAHS-24" value="" style="edgeStyle=orthogonalEdgeStyle;rounded=0;orthogonalLoop=1;jettySize=auto;html=1;" parent="1" source="ItIuUlA7uWM67DeqPAHS-1" target="ItIuUlA7uWM67DeqPAHS-21" edge="1">
          <mxGeometry relative="1" as="geometry" />
        </mxCell>
        <mxCell id="ItIuUlA7uWM67DeqPAHS-1" value="START" style="rounded=1;whiteSpace=wrap;html=1;" parent="1" vertex="1">
          <mxGeometry x="526" y="69" width="120" height="60" as="geometry" />
        </mxCell>
        <mxCell id="ItIuUlA7uWM67DeqPAHS-18" value="" style="edgeStyle=orthogonalEdgeStyle;rounded=0;orthogonalLoop=1;jettySize=auto;html=1;" parent="1" target="ItIuUlA7uWM67DeqPAHS-17" edge="1">
          <mxGeometry relative="1" as="geometry">
            <mxPoint x="587" y="259" as="sourcePoint" />
          </mxGeometry>
        </mxCell>
        <mxCell id="ItIuUlA7uWM67DeqPAHS-34" style="edgeStyle=orthogonalEdgeStyle;rounded=0;orthogonalLoop=1;jettySize=auto;html=1;exitX=0.5;exitY=0;exitDx=0;exitDy=0;entryX=1;entryY=0.25;entryDx=0;entryDy=0;" parent="1" source="ItIuUlA7uWM67DeqPAHS-10" target="ItIuUlA7uWM67DeqPAHS-29" edge="1">
          <mxGeometry relative="1" as="geometry" />
        </mxCell>
        <mxCell id="ItIuUlA7uWM67DeqPAHS-38" style="edgeStyle=orthogonalEdgeStyle;rounded=0;orthogonalLoop=1;jettySize=auto;html=1;exitX=0;exitY=0.75;exitDx=0;exitDy=0;" parent="1" source="ItIuUlA7uWM67DeqPAHS-10" target="ItIuUlA7uWM67DeqPAHS-36" edge="1">
          <mxGeometry relative="1" as="geometry" />
        </mxCell>
        <mxCell id="ItIuUlA7uWM67DeqPAHS-39" style="edgeStyle=orthogonalEdgeStyle;rounded=0;orthogonalLoop=1;jettySize=auto;html=1;exitX=0.5;exitY=1;exitDx=0;exitDy=0;entryX=0.467;entryY=0;entryDx=0;entryDy=0;entryPerimeter=0;" parent="1" source="ItIuUlA7uWM67DeqPAHS-10" target="ItIuUlA7uWM67DeqPAHS-19" edge="1">
          <mxGeometry relative="1" as="geometry" />
        </mxCell>
        <mxCell id="ItIuUlA7uWM67DeqPAHS-10" value="PROOF OF USED" style="whiteSpace=wrap;html=1;rounded=1;" parent="1" vertex="1">
          <mxGeometry x="314" y="199" width="120" height="60" as="geometry" />
        </mxCell>
        <mxCell id="ItIuUlA7uWM67DeqPAHS-14" value="ACCEPT" style="text;html=1;align=center;verticalAlign=middle;resizable=0;points=[];autosize=1;strokeColor=none;fillColor=none;" parent="1" vertex="1">
          <mxGeometry x="447" y="204" width="70" height="30" as="geometry" />
        </mxCell>
        <mxCell id="ItIuUlA7uWM67DeqPAHS-17" value="CLOSE" style="ellipse;whiteSpace=wrap;html=1;rounded=1;" parent="1" vertex="1">
          <mxGeometry x="547" y="479" width="80" height="80" as="geometry" />
        </mxCell>
        <mxCell id="ItIuUlA7uWM67DeqPAHS-19" value="EXPIRED OR DECLINE" style="text;html=1;align=center;verticalAlign=middle;resizable=0;points=[];autosize=1;strokeColor=none;fillColor=none;rotation=-90;" parent="1" vertex="1">
          <mxGeometry x="527" y="349" width="150" height="30" as="geometry" />
        </mxCell>
        <mxCell id="ItIuUlA7uWM67DeqPAHS-21" value="INVITATION SENT" style="text;html=1;strokeColor=none;fillColor=none;align=center;verticalAlign=middle;whiteSpace=wrap;rounded=0;" parent="1" vertex="1">
          <mxGeometry x="601" y="149" width="115" height="30" as="geometry" />
        </mxCell>
        <mxCell id="ItIuUlA7uWM67DeqPAHS-27" style="edgeStyle=orthogonalEdgeStyle;rounded=0;orthogonalLoop=1;jettySize=auto;html=1;exitX=0;exitY=0.5;exitDx=0;exitDy=0;entryX=1;entryY=0.5;entryDx=0;entryDy=0;" parent="1" source="ItIuUlA7uWM67DeqPAHS-25" target="ItIuUlA7uWM67DeqPAHS-10" edge="1">
          <mxGeometry relative="1" as="geometry" />
        </mxCell>
        <mxCell id="ItIuUlA7uWM67DeqPAHS-25" value="INVITE REFREE" style="whiteSpace=wrap;html=1;rounded=1;" parent="1" vertex="1">
          <mxGeometry x="523" y="199" width="120" height="60" as="geometry" />
        </mxCell>
        <mxCell id="ItIuUlA7uWM67DeqPAHS-35" style="edgeStyle=orthogonalEdgeStyle;rounded=0;orthogonalLoop=1;jettySize=auto;html=1;exitX=0.5;exitY=1;exitDx=0;exitDy=0;entryX=0;entryY=0.5;entryDx=0;entryDy=0;" parent="1" source="ItIuUlA7uWM67DeqPAHS-29" target="ItIuUlA7uWM67DeqPAHS-10" edge="1">
          <mxGeometry relative="1" as="geometry" />
        </mxCell>
        <mxCell id="ItIuUlA7uWM67DeqPAHS-29" value="REMINDER SENT" style="text;html=1;strokeColor=none;fillColor=none;align=center;verticalAlign=middle;whiteSpace=wrap;rounded=0;" parent="1" vertex="1">
          <mxGeometry x="233" y="149" width="115" height="30" as="geometry" />
        </mxCell>
        <mxCell id="ItIuUlA7uWM67DeqPAHS-43" value="" style="edgeStyle=orthogonalEdgeStyle;rounded=0;orthogonalLoop=1;jettySize=auto;html=1;" parent="1" source="ItIuUlA7uWM67DeqPAHS-36" target="ItIuUlA7uWM67DeqPAHS-42" edge="1">
          <mxGeometry relative="1" as="geometry" />
        </mxCell>
        <mxCell id="ItIuUlA7uWM67DeqPAHS-48" value="" style="edgeStyle=orthogonalEdgeStyle;rounded=0;orthogonalLoop=1;jettySize=auto;html=1;" parent="1" source="ItIuUlA7uWM67DeqPAHS-36" target="ItIuUlA7uWM67DeqPAHS-47" edge="1">
          <mxGeometry relative="1" as="geometry" />
        </mxCell>
        <mxCell id="ItIuUlA7uWM67DeqPAHS-36" value="REFREE CREDIT FROM ENTITY" style="whiteSpace=wrap;html=1;rounded=1;" parent="1" vertex="1">
          <mxGeometry x="233" y="349" width="120" height="60" as="geometry" />
        </mxCell>
        <mxCell id="ItIuUlA7uWM67DeqPAHS-40" value="EXPIRED" style="text;html=1;strokeColor=none;fillColor=none;align=center;verticalAlign=middle;whiteSpace=wrap;rounded=0;" parent="1" vertex="1">
          <mxGeometry x="434" y="345" width="60" height="30" as="geometry" />
        </mxCell>
        <mxCell id="ItIuUlA7uWM67DeqPAHS-41" value="PROVIDED" style="text;html=1;strokeColor=none;fillColor=none;align=center;verticalAlign=middle;whiteSpace=wrap;rounded=0;rotation=-90;" parent="1" vertex="1">
          <mxGeometry x="254" y="279" width="60" height="30" as="geometry" />
        </mxCell>
        <mxCell id="ItIuUlA7uWM67DeqPAHS-44" style="edgeStyle=orthogonalEdgeStyle;rounded=0;orthogonalLoop=1;jettySize=auto;html=1;exitX=1;exitY=0.5;exitDx=0;exitDy=0;entryX=0;entryY=0.5;entryDx=0;entryDy=0;" parent="1" source="ItIuUlA7uWM67DeqPAHS-42" target="ItIuUlA7uWM67DeqPAHS-17" edge="1">
          <mxGeometry relative="1" as="geometry" />
        </mxCell>
        <mxCell id="ItIuUlA7uWM67DeqPAHS-54" style="edgeStyle=orthogonalEdgeStyle;rounded=0;orthogonalLoop=1;jettySize=auto;html=1;exitX=0;exitY=0.5;exitDx=0;exitDy=0;" parent="1" source="ItIuUlA7uWM67DeqPAHS-42" edge="1">
          <mxGeometry relative="1" as="geometry">
            <mxPoint x="154" y="519" as="targetPoint" />
          </mxGeometry>
        </mxCell>
        <mxCell id="ItIuUlA7uWM67DeqPAHS-42" value="PAYMENT TO &amp;nbsp;CUSTOMER" style="whiteSpace=wrap;html=1;rounded=1;" parent="1" vertex="1">
          <mxGeometry x="233" y="489" width="120" height="60" as="geometry" />
        </mxCell>
        <mxCell id="ItIuUlA7uWM67DeqPAHS-45" value="CREDITED&lt;br&gt;" style="text;html=1;strokeColor=none;fillColor=none;align=center;verticalAlign=middle;whiteSpace=wrap;rounded=0;rotation=-90;" parent="1" vertex="1">
          <mxGeometry x="254" y="429" width="60" height="30" as="geometry" />
        </mxCell>
        <mxCell id="ItIuUlA7uWM67DeqPAHS-46" value="PAYMENT" style="text;html=1;strokeColor=none;fillColor=none;align=center;verticalAlign=middle;whiteSpace=wrap;rounded=0;" parent="1" vertex="1">
          <mxGeometry x="393" y="495" width="60" height="30" as="geometry" />
        </mxCell>
        <mxCell id="ItIuUlA7uWM67DeqPAHS-56" value="" style="edgeStyle=orthogonalEdgeStyle;rounded=0;orthogonalLoop=1;jettySize=auto;html=1;" parent="1" source="ItIuUlA7uWM67DeqPAHS-47" target="ItIuUlA7uWM67DeqPAHS-55" edge="1">
          <mxGeometry relative="1" as="geometry" />
        </mxCell>
        <mxCell id="ItIuUlA7uWM67DeqPAHS-47" value="DISPUTE" style="whiteSpace=wrap;html=1;rounded=1;" parent="1" vertex="1">
          <mxGeometry x="94" y="569" width="120" height="60" as="geometry" />
        </mxCell>
        <mxCell id="ItIuUlA7uWM67DeqPAHS-49" value="TIME EXPIRED" style="text;html=1;strokeColor=none;fillColor=none;align=center;verticalAlign=middle;whiteSpace=wrap;rounded=0;rotation=-90;" parent="1" vertex="1">
          <mxGeometry x="89" y="419" width="110" height="34" as="geometry" />
        </mxCell>
        <mxCell id="ItIuUlA7uWM67DeqPAHS-52" value="TIME EXPIRED" style="text;html=1;strokeColor=none;fillColor=none;align=center;verticalAlign=middle;whiteSpace=wrap;rounded=0;" parent="1" vertex="1">
          <mxGeometry x="156" y="485" width="80" height="34" as="geometry" />
        </mxCell>
        <mxCell id="ItIuUlA7uWM67DeqPAHS-57" style="edgeStyle=orthogonalEdgeStyle;rounded=0;orthogonalLoop=1;jettySize=auto;html=1;exitX=1;exitY=0.5;exitDx=0;exitDy=0;entryX=0.5;entryY=1;entryDx=0;entryDy=0;" parent="1" source="ItIuUlA7uWM67DeqPAHS-55" target="ItIuUlA7uWM67DeqPAHS-17" edge="1">
          <mxGeometry relative="1" as="geometry" />
        </mxCell>
        <mxCell id="ItIuUlA7uWM67DeqPAHS-55" value="CASE OPENED" style="whiteSpace=wrap;html=1;rounded=1;" parent="1" vertex="1">
          <mxGeometry x="294" y="569" width="120" height="60" as="geometry" />
        </mxCell>
      </root>
    </mxGraphModel>
  </diagram>
</mxfile>
